<?xml version="1.0" encoding="utf-8"?>
<!-- Generator: Adobe Illustrator 24.2.1, SVG Export Plug-In . SVG Version: 6.00 Build 0)  -->
<svg version="1.1" id="svg2" xmlns:svg="http://www.w3.org/2000/svg"
	 xmlns="http://www.w3.org/2000/svg" xmlns:xlink="http://www.w3.org/1999/xlink" x="0px" y="0px" viewBox="0 0 575 390"
	 style="enable-background:new 0 0 575 390;" xml:space="preserve">
<style type="text/css">
	.st0{fill-rule:evenodd;clip-rule:evenodd;fill:#ABC2DE;}
	.st1{fill-rule:evenodd;clip-rule:evenodd;fill:#84A5CE;}
	.st2{fill-rule:evenodd;clip-rule:evenodd;fill:#B2AFAD;stroke:#8A5534;}
	.st3{fill-rule:evenodd;clip-rule:evenodd;fill:#4A1810;}
	.st4{fill-rule:evenodd;clip-rule:evenodd;fill:#84A5CE;stroke:#8A5534;}
	.st5{fill-rule:evenodd;clip-rule:evenodd;fill:#D6D4D3;stroke:#8A5534;}
	.st6{fill-rule:evenodd;clip-rule:evenodd;fill:url(#path6170_1_);}
	.st7{fill-rule:evenodd;clip-rule:evenodd;fill:url(#path6172_1_);}
	.st8{fill-rule:evenodd;clip-rule:evenodd;fill:url(#path6176_1_);}
	.st9{fill-rule:evenodd;clip-rule:evenodd;fill:url(#path6178_1_);}
	.st10{fill-rule:evenodd;clip-rule:evenodd;fill:#637B6B;}
	.st11{fill:none;stroke:#FFE784;stroke-width:2;}
	.st12{fill-rule:evenodd;clip-rule:evenodd;fill:#AD7B63;}
	.st13{fill-rule:evenodd;clip-rule:evenodd;fill:#B59484;}
	.st14{fill-rule:evenodd;clip-rule:evenodd;fill:#B5ADA5;}
	.st15{fill-rule:evenodd;clip-rule:evenodd;fill:#D6CEC6;}
</style>
<path id="path9157" class="st0" d="M0,65l10,5l10-5l10,10l10-5h10l10-5l5,10L30,90L0,80V65z"/>
<path id="water" class="st1" d="M0,70v245l575,40V230l-475-25L65,70l-10,5l-10-5L35,80L25,70l-15,5L0,70z"/>
<path id="path6164" class="st2" d="M65,20h15v5h25v-5h5v5l-5,10v20l115,150h25v-90h10l5,5h105l5-5h5v75h50v-5h5v20h-15v90l-70,20
	c-11.8,1.7-20.1-3.6-25-15v-20l5-5c3.4,4.9,9,5.3,15,5c6.6,0.5,15.2-4.4,15-15s-6.8-14.9-15-15s-15,5-15,10h-25
	c-4.5-12.3-17-11.1-25-10l-170-30l-40-30V55l5-5V35l-5-5V20z"/>
<path id="eart" class="st3" d="M0,315v75h575v-40c-11.6-1.3-23.1-2.3-35-5c-11-2.5-22.8-3.9-35-5c-18.3-1.3-165,5-180,0l-95-25
	l-200-5L0,315z"/>
<path id="path4166" class="st2" d="M30,330h135l10-10l100,10c9.7,2,20.1,0.8,25,15h155l10-15v-5h-75c-20,0-40,10-50,10
	s-27.5-11.8-35-25v-30l-5-5c-5,5-15,10-25,0l-175-35l-25,10l-5,25H35l-5,15V330z"/>
<rect id="rect5137" x="35" y="180" class="st2" width="35" height="95"/>
<rect id="rect5139" x="40" y="185" class="st4" width="5" height="25"/>
<rect id="rect5141" x="50" y="185" class="st4" width="5" height="25"/>
<rect id="rect5143" x="60" y="185" class="st4" width="5" height="25"/>
<rect id="rect5145" x="40" y="215" class="st4" width="5" height="25"/>
<rect id="rect6116" x="50" y="215" class="st4" width="5" height="25"/>
<rect id="rect6118" x="60" y="215" class="st4" width="5" height="25"/>
<rect id="rect6120" x="40" y="245" class="st4" width="5" height="25"/>
<rect id="rect6122" x="50" y="245" class="st4" width="5" height="25"/>
<rect id="rect6124" x="60" y="245" class="st4" width="5" height="25"/>
<path id="path6166" class="st5" d="M255,125h115v65h-5v15h5v30h-23v-27h-70v27h-17v-45h-5V125z"/>
<path id="path6168" class="st2" d="M250,195h5v15h-5V195z"/>
<linearGradient id="path6170_1_" gradientUnits="userSpaceOnUse" x1="370.5" y1="104.8898" x2="304.5" y2="104.8898" gradientTransform="matrix(1 0 0 -1 -25 324.8898)">
	<stop  offset="0" style="stop-color:#7B7675"/>
	<stop  offset="0.6162" style="stop-color:#D4D4D4"/>
	<stop  offset="1" style="stop-color:#787878"/>
</linearGradient>
<path id="path6170" class="st6" d="M280,230h65v-20h-65V230z"/>
<linearGradient id="path6172_1_" gradientUnits="userSpaceOnUse" x1="345" y1="79.8898" x2="330" y2="79.8898" gradientTransform="matrix(1 0 0 -1 -25 324.8898)">
	<stop  offset="0" style="stop-color:#7B7675"/>
	<stop  offset="0.6162" style="stop-color:#D4D4D4"/>
	<stop  offset="1" style="stop-color:#787878"/>
</linearGradient>
<path id="path6172" class="st7" d="M305,230v30h15v-30H305z"/>
<path id="path6174" class="st2" d="M305,204h15v4h-15V204z"/>
<linearGradient id="path6176_1_" gradientUnits="userSpaceOnUse" x1="345" y1="51.8898" x2="330" y2="51.8898" gradientTransform="matrix(1 0 0 -1 -25 324.8898)">
	<stop  offset="0" style="stop-color:#7B7675"/>
	<stop  offset="0.6162" style="stop-color:#D4D4D4"/>
	<stop  offset="1" style="stop-color:#787878"/>
</linearGradient>
<path id="path6176" class="st8" d="M309,260v15l-2,2v9h11v-9l-2-2v-15H309z"/>
<radialGradient id="path6178_1_" cx="313.5163" cy="-33.2808" r="18" gradientTransform="matrix(1.3814 -0.147 -7.389078e-02 -0.6944 -126.5402 287.4787)" gradientUnits="userSpaceOnUse">
	<stop  offset="0" style="stop-color:#6E6E6E"/>
	<stop  offset="1" style="stop-color:#C4C4C4"/>
</radialGradient>
<path id="path6178" class="st9" d="M312,260c-6,1-13.9,2-17,8c3,9,12,7,18,8c6.1-1.2,14.3-1.5,17-8C325.6,261.6,318,261,312,260z"/>
<path id="path6180" class="st10" d="M415,210h10c10.4,2.8,20.3,4.2,30,5c7.5-4.1,16.2-4.8,25-5h45l31.5-1.5L575,210v35
	c-7.5,0.7-12.6,3-25,0c-13.5,1.1-28.9,0.9-45,0c-16.4-1.4-32.9-2.5-50,0c-20.6,2.7-29.7,1.1-40,0V210z"/>
<path id="path6182" class="st2" d="M480,210v-5h45v5H480z"/>
<path id="path6184" class="st2" d="M485,205l5-5h25l5,5H485z"/>
<path id="path6186" class="st2" d="M490,200v-5h-5v-20h35v20h-5v5H490z"/>
<path id="path6188" class="st2" d="M490,175v20"/>
<path id="path6190" class="st2" d="M495,200v-25"/>
<path id="path6192" class="st2" d="M500,175v25"/>
<path id="path6194" class="st2" d="M505,200v-25"/>
<path id="path6196" class="st2" d="M510,175v25"/>
<path id="path6198" class="st2" d="M515,195v-20"/>
<path id="path6204" class="st11" d="M490,170H360v55h-15"/>
<path id="path6206" class="st11" d="M345,220h10v-55h130"/>
<path id="path6208" class="st11" d="M480,160H350v55h-5"/>
<path id="path6200" class="st2" d="M490,175l-10-15l20,15H490z"/>
<path id="path6210" class="st11" d="M515,170h60"/>
<path id="path6212" class="st11" d="M515,165h60"/>
<path id="path6214" class="st11" d="M520,160h55"/>
<path id="path6202" class="st2" d="M505,175l15-15l-5,15H505z"/>
<path id="path12113" class="st12" d="M563.3,235.6c2.4,1.8,3.6,1.5,6.5,2.6c1.2,0.4,3.1-0.7,3.4-1.7s0.1-2.9-1.1-3.2
	c-2.2-0.8-4.6-0.5-7-0.3C563.4,233.3,561.7,233.9,563.3,235.6z"/>
<path id="path12119" class="st12" d="M462.8,237.7c2.4,1.8,3.6,1.5,6.5,2.6c1.2,0.4,3.1-0.7,3.4-1.7c0.4-1,0.1-2.9-1.1-3.2
	c-2.2-0.8-4.6-0.5-7-0.3C462.9,235.5,461.2,236,462.8,237.7z"/>
<path id="path12121" class="st12" d="M423.1,226.9c2.4,1.8,3.6,1.5,6.5,2.6c1.2,0.4,3.1-0.7,3.4-1.7c0.4-1,0.1-2.9-1.1-3.2
	c-2.2-0.8-4.6-0.5-7-0.3C423.2,224.7,421.4,225.2,423.1,226.9z"/>
<path id="path12123" class="st12" d="M421.8,239c2.4,1.8,3.6,1.5,6.5,2.6c1.2,0.4,3.1-0.7,3.4-1.7s0.1-2.9-1.1-3.2
	c-2.2-0.8-4.6-0.5-7-0.3C421.9,236.8,420.2,237.3,421.8,239z"/>
<path id="path12125" class="st12" d="M443.7,230c2.4,1.8,3.6,1.5,6.5,2.6c1.2,0.4,3.1-0.7,3.4-1.7c0.4-1,0.1-2.9-1.1-3.2
	c-2.2-0.8-4.6-0.5-7-0.3C443.8,227.7,442,228.3,443.7,230z"/>
<path id="path12127" class="st12" d="M430.3,233.9c2.4,1.8,3.6,1.5,6.5,2.6c1.2,0.4,3.1-0.7,3.4-1.7s0.1-2.9-1.1-3.2
	c-2.2-0.8-4.6-0.5-7-0.3C430.4,231.7,428.7,232.3,430.3,233.9z"/>
<path id="path12131" class="st12" d="M512.8,240.6c2.4,1.8,3.6,1.5,6.5,2.6c1.2,0.4,3.1-0.7,3.4-1.7c0.4-1,0.1-2.9-1.1-3.2
	c-2.2-0.8-4.6-0.5-7-0.3C512.9,238.4,511.2,238.9,512.8,240.6z"/>
<path id="path11115" class="st12" d="M539.1,235.1c2.4,1.8,3.6,1.5,6.5,2.6c1.2,0.4,3.1-0.7,3.4-1.7c0.4-1,0.1-2.9-1.1-3.2
	c-2.2-0.8-4.6-0.5-7-0.3C539.2,232.8,537.4,233.4,539.1,235.1z"/>
<path id="path12171" class="st13" d="M542.4,239.2c-0.2,1,1.3,1.1,2.1,1.6c0.7,0.4,1.4,0.1,1.9,1s1.8,0.5,2.6,0.1
	c0.7-0.5,1-1.9,0.4-2.6c-0.6-0.7-2.3-0.6-3-0.7C545.1,237.7,543.5,237.6,542.4,239.2z"/>
<path id="path12173" class="st13" d="M531.2,227.5c-0.2,1,1.3,1.1,2.1,1.6c0.7,0.4,1.4,0.1,1.9,1s1.8,0.5,2.6,0.1
	c0.7-0.5,1-1.9,0.4-2.6c-0.6-0.7-2.3-0.6-3-0.7C533.9,225.9,532.3,225.9,531.2,227.5z"/>
<path id="path12175" class="st13" d="M517.7,225.7c-0.2,1,1.3,1.1,2.1,1.6c0.7,0.4,1.4,0.1,1.9,1c0.4,0.9,1.8,0.5,2.6,0.1
	c0.7-0.5,1-1.9,0.4-2.6c-0.6-0.7-2.3-0.6-3-0.7C520.4,224.1,518.8,224.1,517.7,225.7z"/>
<path id="path12177" class="st13" d="M519.9,234c-0.2,1,1.3,1.1,2.1,1.6s1.4,0.1,1.9,1s1.8,0.5,2.6,0.1c0.7-0.5,1-1.9,0.4-2.6
	s-2.3-0.6-3-0.7C522.6,232.4,521,232.4,519.9,234z"/>
<path id="path12179" class="st13" d="M506.7,234.7c-0.2,1,1.3,1.1,2.1,1.6c0.7,0.4,1.4,0.1,1.9,1s1.8,0.5,2.6,0.1
	c0.7-0.5,1-1.9,0.4-2.6s-2.3-0.6-3-0.7C509.4,233.2,507.8,233.1,506.7,234.7z"/>
<path id="path12181" class="st13" d="M488.9,227.6c-0.2,1,1.3,1.1,2.1,1.6c0.7,0.4,1.4,0.1,1.9,1c0.4,0.9,1.8,0.5,2.6,0.1
	s1-1.9,0.4-2.6c-0.6-0.7-2.3-0.6-3-0.7C491.6,226.1,490,226.1,488.9,227.6z"/>
<path id="path12183" class="st13" d="M485.9,232.3c-0.2,1,1.3,1.1,2.1,1.6c0.7,0.4,1.4,0.1,1.9,1s1.8,0.5,2.6,0.1
	c0.7-0.5,1-1.9,0.4-2.6c-0.6-0.7-2.3-0.6-3-0.7C488.6,230.8,487,230.8,485.9,232.3z"/>
<path id="path12185" class="st13" d="M480.4,241.3c-0.2,1,1.3,1.1,2.1,1.6c0.7,0.4,1.4,0.1,1.9,1s1.8,0.5,2.6,0.1
	c0.7-0.5,1-1.9,0.4-2.6c-0.6-0.7-2.3-0.6-3-0.7C483.1,239.8,481.5,239.8,480.4,241.3z"/>
<path id="path12187" class="st13" d="M458.9,240.4c-0.2,1,1.3,1.1,2.1,1.6c0.7,0.4,1.4,0.1,1.9,1s1.8,0.5,2.6,0.1
	c0.7-0.5,1-1.9,0.4-2.6c-0.6-0.7-2.3-0.6-3-0.7C461.6,238.9,460,238.9,458.9,240.4z"/>
<path id="path12189" class="st13" d="M429.2,242.8c-0.2,1,1.3,1.1,2.1,1.6c0.7,0.4,1.4,0.1,1.9,1s1.8,0.5,2.6,0.1
	c0.7-0.5,1-1.9,0.4-2.6c-0.6-0.7-2.3-0.6-3-0.7C431.9,241.3,430.3,241.2,429.2,242.8z"/>
<path id="path12193" class="st13" d="M454.9,231.6c-0.2,1,1.3,1.1,2.1,1.6c0.7,0.4,1.4,0.1,1.9,1s1.8,0.5,2.6,0.1s1-1.9,0.4-2.6
	c-0.6-0.7-2.3-0.6-3-0.7C457.6,230.1,456,230,454.9,231.6z"/>
<path id="path12195" class="st13" d="M476.2,228.7c-0.2,1,1.3,1.1,2.1,1.6c0.7,0.4,1.4,0.1,1.9,1s1.8,0.5,2.6,0.1
	c0.7-0.5,1-1.9,0.4-2.6c-0.6-0.7-2.3-0.6-3-0.7C478.9,227.2,477.3,227.1,476.2,228.7z"/>
<path id="path12197" class="st13" d="M472.7,239.3c-0.2,1,1.3,1.1,2.1,1.6c0.7,0.4,1.4,0.1,1.9,1c0.4,0.9,1.8,0.5,2.6,0.1
	s1-1.9,0.4-2.6c-0.6-0.7-2.3-0.6-3-0.7C475.4,237.8,473.8,237.7,472.7,239.3z"/>
<path id="path11117" class="st13" d="M537.9,241.7c-0.2,1,1.3,1.1,2.1,1.6s1.4,0.1,1.9,1c0.4,0.9,1.8,0.5,2.6,0.1
	c0.7-0.5,1-1.9,0.4-2.6c-0.6-0.7-2.3-0.6-3-0.7C540.6,240.1,539,240.1,537.9,241.7z"/>
<path id="path12139" class="st14" d="M554.2,238.1c-3.1-1.3-4.2,1.1-3.2,3.5c0.9,2.4,6.7,4.5,8,1.5
	C560.2,240,557.2,239.3,554.2,238.1z"/>
<path id="path12141" class="st14" d="M555.7,228.7c-3.1-1.3-4.2,1.1-3.2,3.5s6.7,4.5,8,1.5C561.7,230.6,558.7,230,555.7,228.7z"/>
<path id="path12143" class="st14" d="M532.2,230.3c-3.1-1.3-4.2,1.1-3.2,3.5c0.9,2.4,6.7,4.5,8,1.5
	C538.2,232.2,535.2,231.6,532.2,230.3z"/>
<path id="path12145" class="st14" d="M504.2,225.3c-3.1-1.3-4.2,1.1-3.2,3.5c0.9,2.4,6.7,4.5,8,1.5
	C510.2,227.2,507.2,226.6,504.2,225.3z"/>
<path id="path12147" class="st14" d="M481.7,233c-3.1-1.3-4.2,1.1-3.2,3.5c0.9,2.4,6.7,4.5,8,1.5S484.7,234.3,481.7,233z"/>
<path id="path12149" class="st14" d="M460.2,224.2c-3.1-1.3-4.2,1.1-3.2,3.5c0.9,2.4,6.7,4.5,8,1.5
	C466.2,226.1,463.2,225.5,460.2,224.2z"/>
<path id="path12151" class="st14" d="M454.2,234.3c-3.1-1.3-4.2,1.1-3.2,3.5c0.9,2.4,6.7,4.5,8,1.5
	C460.2,236.2,457.2,235.5,454.2,234.3z"/>
<path id="path12155" class="st14" d="M445.2,232.2c-3.1-1.3-4.2,1.1-3.2,3.5c0.9,2.4,6.7,4.5,8,1.5
	C451.2,234.1,448.2,233.5,445.2,232.2z"/>
<path id="path12157" class="st14" d="M420.9,228.9c-3.1-1.3-4.2,1.1-3.2,3.5c0.9,2.4,6.7,4.5,8,1.5C427,230.8,424,230.1,420.9,228.9
	z"/>
<path id="path12161" class="st14" d="M493.7,237.5c-3.1-1.3-4.2,1.1-3.2,3.5c0.9,2.4,6.7,4.5,8,1.5
	C499.7,239.4,496.7,238.8,493.7,237.5z"/>
<path id="path12163" class="st14" d="M506.9,238.2c-3.1-1.3-4.2,1.1-3.2,3.5c0.9,2.4,6.7,4.5,8,1.5C513,240.2,510,239.5,506.9,238.2
	z"/>
<path id="path12165" class="st14" d="M514.7,227.6c-3.1-1.3-4.2,1.1-3.2,3.5c0.9,2.4,6.7,4.5,8,1.5
	C520.7,229.5,517.7,228.9,514.7,227.6z"/>
<path id="path12169" class="st14" d="M563.9,224.6c-3.1-1.3-4.2,1.1-3.2,3.5s6.7,4.5,8,1.5C570,226.5,567,225.8,563.9,224.6z"/>
<path id="path11119" class="st14" d="M563.9,224.6c-3.1-1.3-4.2,1.1-3.2,3.5s6.7,4.5,8,1.5C570,226.5,567,225.8,563.9,224.6z"/>
<path id="path12199" class="st15" d="M539.6,226.7c-0.9,0.8,1.3,1.4,2.4,1.7c1.1,0.3,2.5,0.9,2.8,2.3s2.1,1.1,3.6,0.7
	c1.5-0.3,3.8-2.1,3.5-3.4c-0.3-1.3-2.9,0.1-3.9-0.8C546.2,226,541.6,225.6,539.6,226.7z"/>
<path id="path12201" class="st15" d="M560.3,238.9c-0.9,0.8,1.3,1.4,2.4,1.7c1.1,0.3,2.5,0.9,2.8,2.3c0.3,1.3,2.1,1.1,3.6,0.7
	s3.8-2.1,3.5-3.4c-0.3-1.3-2.9,0.1-3.9-0.8C567,238.2,562.3,237.9,560.3,238.9z"/>
<path id="path12203" class="st15" d="M465.8,229.9c-0.9,0.8,1.3,1.4,2.4,1.7c1.1,0.3,2.5,0.9,2.8,2.3c0.3,1.3,2.1,1.1,3.6,0.7
	c1.5-0.3,3.8-2.1,3.5-3.4c-0.3-1.3-2.9,0.1-3.9-0.8C472.5,229.2,467.8,228.8,465.8,229.9z"/>
<path id="path12205" class="st15" d="M493.8,231.4c-0.9,0.8,1.3,1.4,2.4,1.7c1.1,0.3,2.5,0.9,2.8,2.3c0.3,1.3,2.1,1.1,3.6,0.7
	c1.5-0.3,3.8-2.1,3.5-3.4c-0.3-1.3-2.9,0.1-3.9-0.8C500.5,230.7,495.8,230.3,493.8,231.4z"/>
<path id="path12209" class="st15" d="M438.6,239.7c-0.9,0.8,1.3,1.4,2.4,1.7c1.1,0.3,2.5,0.9,2.8,2.3c0.3,1.3,2.1,1.1,3.6,0.7
	c1.5-0.3,3.8-2.1,3.5-3.4c-0.3-1.3-2.9,0.1-3.9-0.8C445.2,239,440.6,238.6,438.6,239.7z"/>
<path id="path12211" class="st15" d="M524.3,240c-0.9,0.8,1.3,1.4,2.4,1.7c1.1,0.3,2.5,0.9,2.8,2.3s2.1,1.1,3.6,0.7
	c1.5-0.3,3.8-2.1,3.5-3.4c-0.3-1.3-2.9,0.1-3.9-0.8C531,239.3,526.3,238.9,524.3,240z"/>
<path id="path11121" class="st15" d="M524.3,239.8c-0.9,0.8,1.3,1.4,2.4,1.7s2.5,0.9,2.8,2.3c0.3,1.3,2.1,1.1,3.6,0.7
	c1.5-0.3,3.8-2.1,3.5-3.4c-0.3-1.3-2.9,0.1-3.9-0.8C531,239.1,526.3,238.8,524.3,239.8z"/>
</svg>
